<svg xmlns="http://www.w3.org/2000/svg" viewBox="0 0 563.29 127.41"><path d="M514.29 11a19.54 19.54 0 0 0-19.53 19.5V47l30.8-25-25.25 30.51h16.45A19.54 19.54 0 0 0 536.3 33V11z" fill="#e24301"/><path d="M563.29,91.58a32.71,32.71,0,0,0-32.7-32.71H501.78L563.29,125Z" fill="#003764"/><path d="M494.76,65.89V94.7a32.71,32.71,0,0,0,32.71,32.71h34.16Z" fill="#00a0dd"/><path d="M460.46 52.51h20.79L435.76 1.66v26.15a24.7 24.7 0 0 0 24.7 24.7z" fill="#6cc04a"/><path d="M488.27,24.69A24.69,24.69,0,0,0,463.58,0H437.42l50.85,45.49Z" fill="#026937"/><path d="M15.15 60.45q1.39-.2 2.67-.3l2.8-.1 2.6.1 2.81.3 15 48a37.78 37.78 0 0 1-5.34.4 30.66 30.66 0 0 1-4.93-.4l-2.66-9.62H12.21l-2.73 9.61a28.93 28.93 0 0 1-4.61.4 30.38 30.38 0 0 1-4.87-.4zm10.68 30.3L20.29 70.6l-5.81 20.15zm39.74-31.1a21.72 21.72 0 0 1 2.37-.26l2.3-.07 2.33.07a21.9 21.9 0 0 1 2.41.26v47.65a47.86 47.86 0 0 1-6.38 1.44 52.72 52.72 0 0 1-7.84.5 23.68 23.68 0 0 1-6.77-1 15.55 15.55 0 0 1-5.71-3.07 14.48 14.48 0 0 1-3.9-5.44 22.55 22.55 0 0 1-.2-15.31 17 17 0 0 1 3.53-5.84 16.77 16.77 0 0 1 5.58-3.91 18 18 0 0 1 7.27-1.43l2.5.1a12.78 12.78 0 0 1 2.51.43zm0 21.43a18 18 0 0 0-2.17-.44 19.93 19.93 0 0 0-2.1-.1 7.67 7.67 0 0 0-6.54 3.31 10.06 10.06 0 0 0-1.57 3.53 17.4 17.4 0 0 0-.5 4.24 14.24 14.24 0 0 0 .66 4.64 7.67 7.67 0 0 0 1.84 3 6.77 6.77 0 0 0 2.81 1.67 11.69 11.69 0 0 0 3.47.5 18.76 18.76 0 0 0 2.07-.1 12.56 12.56 0 0 0 2.07-.43zM79.13 74a20.33 20.33 0 0 1 3-.4l2.37-.07 2.67.07a15.06 15.06 0 0 1 2.47.33l7.54 25.7 7.41-25.7q1.14-.2 2.4-.3l2.54-.1 2.3.07a21.87 21.87 0 0 1 3 .4l-13.08 34.44a24.17 24.17 0 0 1-2.67.26l-2.33.07c-.62 0-1.43 0-2.27-.07a13.09 13.09 0 0 1-2.41-.33zm46.06 20.09c.18 2.67 1.11 4.6 2.8 5.81a11.3 11.3 0 0 0 6.67 1.8 25.63 25.63 0 0 0 4.64-.44 26.92 26.92 0 0 0 4.51-1.23 15.8 15.8 0 0 1 1.27 3.2 17 17 0 0 1 .6 4 32.64 32.64 0 0 1-11.75 2 22.76 22.76 0 0 1-8.24-1.34 14.67 14.67 0 0 1-5.61-3.7 15 15 0 0 1-3.2-5.64 23.56 23.56 0 0 1-1-7.14 23.31 23.31 0 0 1 1.06-7.14 16.78 16.78 0 0 1 3.17-5.81 15.1 15.1 0 0 1 5.21-3.9 17 17 0 0 1 7.24-1.44 15.5 15.5 0 0 1 6.41 1.27 14.31 14.31 0 0 1 4.77 3.47 14.75 14.75 0 0 1 3 5.24 20.89 20.89 0 0 1 1 6.51l-.1 2.5-.24 2zm13.55-6.61a8.41 8.41 0 0 0-1.74-5.17 5.63 5.63 0 0 0-4.57-2 6.62 6.62 0 0 0-5.08 1.87 8.8 8.8 0 0 0-2.06 5.27zM154 73.93l1.87-.3a18.64 18.64 0 0 1 2.07-.1 19.47 19.47 0 0 1 2 .1q.87.11 1.8.3a3.72 3.72 0 0 1 .37 1l.3 1.34.23 1.37.17 1.13a15.57 15.57 0 0 1 1.6-2 11.29 11.29 0 0 1 2.17-1.8 11.8 11.8 0 0 1 2.77-1.31 11 11 0 0 1 3.4-.5q5.88 0 8.85 3.21 2.97 3.21 3 10.07v22a28.28 28.28 0 0 1-9.48 0V89a11.41 11.41 0 0 0-1.1-5.54 4.05 4.05 0 0 0-3.84-1.93 8.73 8.73 0 0 0-2.33.33 4.85 4.85 0 0 0-2.17 1.3 7 7 0 0 0-1.57 2.7 14.21 14.21 0 0 0-.6 4.54v18.09a28.28 28.28 0 0 1-9.48 0zm39.16 7.21h-4.33l-.34-1.33 12.48-16h1.54v10.12h8.07a15.94 15.94 0 0 1 .27 1.81l.07 1.67-.07 1.8a17.76 17.76 0 0 1-.27 1.93h-8.07v13.55a13.73 13.73 0 0 0 .33 3.34 5 5 0 0 0 1 2 3.16 3.16 0 0 0 1.57 1 7.92 7.92 0 0 0 2.2.27 11.73 11.73 0 0 0 2-.17l1.7-.3a13.44 13.44 0 0 1 .67 2.64 17.46 17.46 0 0 1 .2 2.43v1.24c0 .34-.05.65-.1 1a27.1 27.1 0 0 1-6.34.74q-6.07 0-9.27-2.84-3.2-2.84-3.21-9.24zm26.39 0h-4.47a16.64 16.64 0 0 1-.3-1.83 17.12 17.12 0 0 1-.1-1.84 15.56 15.56 0 0 1 .4-3.54h13.75v34.51a29.17 29.17 0 0 1-4.67.4 28.83 28.83 0 0 1-4.61-.4zm-1.4-13a25.35 25.35 0 0 1-.4-4.47 26 26 0 0 1 .4-4.47 21.7 21.7 0 0 1 2.44-.3l2.36-.1 2.47.1a21.42 21.42 0 0 1 2.47.3 17.38 17.38 0 0 1 .27 2.23l.07 2.24-.07 2.2a17.56 17.56 0 0 1-.27 2.27 21.74 21.74 0 0 1-2.43.27l-2.44.06c-.76 0-1.51 0-2.4-.06a22 22 0 0 1-2.47-.28zm25.19 25.28a13.16 13.16 0 0 1-5.84-3.17q-2.1-2.1-2.1-6.3A9.57 9.57 0 0 1 239 76q3.65-2.86 9.91-2.87a28.41 28.41 0 0 1 5.14.47 33.12 33.12 0 0 1 5.14 1.4 18.08 18.08 0 0 1-.67 3.61 17.16 17.16 0 0 1-1.27 3.27 24.75 24.75 0 0 0-3.53-1.17 15.93 15.93 0 0 0-4.07-.5 7.33 7.33 0 0 0-3.54.7 2.37 2.37 0 0 0-1.27 2.24 2.29 2.29 0 0 0 .9 2.06 10.72 10.72 0 0 0 2.57 1.14l3.81 1.13a19.55 19.55 0 0 1 3.37 1.3 9.57 9.57 0 0 1 2.57 1.91 7.92 7.92 0 0 1 1.66 2.8 12.09 12.09 0 0 1 .6 4.07 10.37 10.37 0 0 1-1 4.6 10.66 10.66 0 0 1-3 3.71 15.15 15.15 0 0 1-4.77 2.47 20.74 20.74 0 0 1-6.34.9c-1.07 0-2.05 0-2.94-.1a22.78 22.78 0 0 1-2.57-.34l-2.44-.56c-.8-.22-1.66-.51-2.6-.87a18.93 18.93 0 0 1 .64-3.64 22.13 22.13 0 0 1 1.3-3.57 27 27 0 0 0 4.17 1.3 18.94 18.94 0 0 0 4.1.44 14 14 0 0 0 2-.17 7.36 7.36 0 0 0 2-.6 4.83 4.83 0 0 0 1.57-1.13 3.13 3.13 0 0 0-.33-4.14 9.44 9.44 0 0 0-2.71-1.24zm24.19-12.28h-4.33l-.34-1.33 12.48-16h1.54v10.12H285a15.94 15.94 0 0 1 .27 1.81l.07 1.67-.07 1.8a17.76 17.76 0 0 1-.27 1.93h-8.07v13.55a13.73 13.73 0 0 0 .33 3.34 5 5 0 0 0 1 2 3.16 3.16 0 0 0 1.57 1 7.92 7.92 0 0 0 2.2.27 11.73 11.73 0 0 0 2-.17l1.7-.3a13.44 13.44 0 0 1 .67 2.64 17.46 17.46 0 0 1 .2 2.43v1.24c0 .34-.05.65-.1 1a27.1 27.1 0 0 1-6.34.74q-6.08 0-9.27-2.84-3.19-2.84-3.21-9.24z" fill="#003764"/><path d="M298.32 60.36a30.2 30.2 0 0 1 4.88-.4 31.43 31.43 0 0 1 4.95.4v18.86h16.11V60.36a30.2 30.2 0 0 1 4.88-.4 31.34 31.34 0 0 1 4.95.4v48.08a32.19 32.19 0 0 1-4.88.4 31.77 31.77 0 0 1-4.95-.4v-20.8h-16.11v20.8a32.29 32.29 0 0 1-4.88.4 31.77 31.77 0 0 1-4.95-.4zm51.38 33.7c.17 2.68 1.11 4.61 2.8 5.82a11.36 11.36 0 0 0 6.69 1.8 26.57 26.57 0 0 0 9.16-1.67 15.67 15.67 0 0 1 1.27 3.21 16.1 16.1 0 0 1 .6 4 32.5 32.5 0 0 1-11.77 2 22.82 22.82 0 0 1-8.25-1.34 14.65 14.65 0 0 1-5.62-3.71 14.88 14.88 0 0 1-3.21-5.65 24.79 24.79 0 0 1 0-14.31 16.92 16.92 0 0 1 3.18-5.82 15.07 15.07 0 0 1 5.22-3.91 17.24 17.24 0 0 1 7.25-1.43 15.36 15.36 0 0 1 6.42 1.27 14.12 14.12 0 0 1 4.78 3.47 14.73 14.73 0 0 1 3 5.25 21 21 0 0 1 1 6.52l-.1 2.51-.24 2zm13.57-6.62a8.42 8.42 0 0 0-1.77-5.18 5.62 5.62 0 0 0-4.58-2 6.57 6.57 0 0 0-5.08 1.87 8.78 8.78 0 0 0-2.08 5.28zm32.51-1.74a5.43 5.43 0 0 0-.54-2.6 4 4 0 0 0-1.47-1.58 6.16 6.16 0 0 0-2.31-.77 21.53 21.53 0 0 0-3-.2 23.62 23.62 0 0 0-7.73 1.45 18.11 18.11 0 0 1-1.4-3.28 12.76 12.76 0 0 1-.47-3.68 37.18 37.18 0 0 1 5.88-1.47 35.33 35.33 0 0 1 5.49-.46q6.94 0 10.86 3.34 3.92 3.34 3.91 10.66v20.06a56.92 56.92 0 0 1-5.68 1.4 39.17 39.17 0 0 1-7.55.67 30.38 30.38 0 0 1-6.26-.6 13.53 13.53 0 0 1-4.88-2 9.51 9.51 0 0 1-3.14-3.61 12 12 0 0 1-1.1-5.42 9.84 9.84 0 0 1 1.37-5.38 10.52 10.52 0 0 1 3.54-3.48 16 16 0 0 1 4.85-1.87 25.54 25.54 0 0 1 5.35-.57l4.28.2zm0 6.89l-1.74-.23a15.12 15.12 0 0 0-1.67-.1 9.94 9.94 0 0 0-5.18 1.16 4.11 4.11 0 0 0-1.91 3.78 4.21 4.21 0 0 0 .74 2.68 4.43 4.43 0 0 0 1.77 1.37 7 7 0 0 0 2.2.53l2 .1a12.38 12.38 0 0 0 2-.16l1.74-.3zm16.42-33.03a28.44 28.44 0 0 1 4.74-.4 28.09 28.09 0 0 1 4.68.4v35.1a18.83 18.83 0 0 0 .24 3.35 5 5 0 0 0 .73 2 2.58 2.58 0 0 0 1.31 1 6.34 6.34 0 0 0 2 .26q.54 0 1.17-.06a11.89 11.89 0 0 0 1.24-.2 20.63 20.63 0 0 1 .74 5.35v1a3.91 3.91 0 0 1-.14 1 12 12 0 0 1-2.57.47l-2.78.14a11.76 11.76 0 0 1-8.25-2.84q-3.12-2.85-3.11-9.26zm21.17 21.53H429l-.33-1.34 12.5-16h1.54v10.1h8.09a15.92 15.92 0 0 1 .26 1.8 18.19 18.19 0 0 1 .07 1.67l-.07 1.81a17.72 17.72 0 0 1-.26 1.94h-8.09v13.59a13.82 13.82 0 0 0 .33 3.35 5 5 0 0 0 1 2 3.13 3.13 0 0 0 1.57 1 8 8 0 0 0 2.21.27 10.77 10.77 0 0 0 2-.17l1.71-.3a13.08 13.08 0 0 1 .66 2.64 16.27 16.27 0 0 1 .2 2.44v1.24c0 .33-.06.66-.1 1a27.24 27.24 0 0 1-6.35.74q-6.09 0-9.29-2.84-3.2-2.84-3.21-9.26zm23.83-21.53a21.43 21.43 0 0 1 2.34-.27q1.2-.06 2.34-.06 1.14 0 2.34.06 1.2.08 2.4.27V78c.31-.4.73-.88 1.24-1.44a10.86 10.86 0 0 1 1.91-1.61 11.26 11.26 0 0 1 2.74-1.3 11.49 11.49 0 0 1 3.67-.53q5.76 0 8.73 3.2 2.97 3.2 3 10.1v22.08a20 20 0 0 1-2.41.27l-2.34.07c-.76 0-1.54 0-2.34-.07a19.74 19.74 0 0 1-2.41-.27V88.91a11.07 11.07 0 0 0-1.14-5.55 4.12 4.12 0 0 0-3.87-1.94 8.83 8.83 0 0 0-2.34.34 4.93 4.93 0 0 0-2.18 1.3 7.4 7.4 0 0 0-1.6 2.71 13.33 13.33 0 0 0-.64 4.55v18.18a19.58 19.58 0 0 1-2.4.27l-2.34.07c-.75 0-1.53 0-2.31-.07a19.55 19.55 0 0 1-2.37-.27z" fill="#00a0dd"/></svg>