<svg xmlns="http://www.w3.org/2000/svg" viewBox="0 0 563.29 127.41" fill="#fff"><path d="M514.29 11a19.54 19.54 0 0 0-19.53 19.5V47l30.8-25-25.25 30.51h16.45A19.54 19.54 0 0 0 536.3 33V11zm49 80.58a32.71 32.71 0 0 0-32.7-32.71h-28.81L563.29 125z"/><path d="M494.76 65.89V94.7a32.7 32.7 0 0 0 32.71 32.71h34.16zm-34.3-13.38h20.79L435.76 1.66v26.15a24.7 24.7 0 0 0 24.7 24.7zm27.81-27.82A24.68 24.68 0 0 0 463.58 0h-26.16l50.85 45.49zM15.15 60.45q1.39-.2 2.67-.3l2.8-.1 2.6.1 2.81.3 15 48a38.16 38.16 0 0 1-5.34.4 30.17 30.17 0 0 1-4.93-.4l-2.66-9.62H12.21l-2.73 9.61a28.51 28.51 0 0 1-4.61.4 30.57 30.57 0 0 1-4.87-.4zm10.68 30.3L20.29 70.6l-5.81 20.15zm39.74-31.1a20.94 20.94 0 0 1 2.37-.26l2.3-.07 2.33.07a21.65 21.65 0 0 1 2.41.26v47.65a47.86 47.86 0 0 1-6.38 1.44 52.76 52.76 0 0 1-7.84.5 23.56 23.56 0 0 1-6.77-1 15.6 15.6 0 0 1-5.71-3.07 14.47 14.47 0 0 1-3.9-5.44 22.56 22.56 0 0 1-.2-15.31 17 17 0 0 1 3.53-5.84 16.77 16.77 0 0 1 5.58-3.91 18 18 0 0 1 7.27-1.43l2.5.1a12.55 12.55 0 0 1 2.51.43zm0 21.43a17.75 17.75 0 0 0-2.17-.44c-.7-.07-1.4-.1-2.1-.1a7.67 7.67 0 0 0-6.54 3.31 9.93 9.93 0 0 0-1.57 3.53 17.31 17.31 0 0 0-.5 4.24 14.32 14.32 0 0 0 .66 4.64 7.58 7.58 0 0 0 1.84 3 6.78 6.78 0 0 0 2.81 1.67 11.61 11.61 0 0 0 3.47.5 20.49 20.49 0 0 0 2.07-.1 12.28 12.28 0 0 0 2.07-.43zM79.13 74a20.21 20.21 0 0 1 3-.4l2.37-.07 2.67.07a14.66 14.66 0 0 1 2.47.33l7.54 25.7 7.41-25.7q1.14-.2 2.4-.3l2.54-.1 2.3.07a21.62 21.62 0 0 1 3 .4l-13.08 34.44a23.89 23.89 0 0 1-2.67.26l-2.33.07c-.62 0-1.43 0-2.27-.07a13.06 13.06 0 0 1-2.41-.33zm46.06 20.09c.18 2.67 1.11 4.6 2.8 5.81a11.31 11.31 0 0 0 6.67 1.8 25.77 25.77 0 0 0 4.64-.44 26.84 26.84 0 0 0 4.51-1.23 16 16 0 0 1 1.27 3.2 16.9 16.9 0 0 1 .6 4 32.67 32.67 0 0 1-11.75 2 22.66 22.66 0 0 1-8.24-1.34 14.67 14.67 0 0 1-5.61-3.7 14.87 14.87 0 0 1-3.2-5.64 23.61 23.61 0 0 1-1-7.14 23.36 23.36 0 0 1 1.06-7.14 16.81 16.81 0 0 1 3.17-5.81 15.16 15.16 0 0 1 5.21-3.9 17 17 0 0 1 7.24-1.44 15.52 15.52 0 0 1 6.44 1.27 14.23 14.23 0 0 1 4.77 3.47 14.82 14.82 0 0 1 3 5.24 20.83 20.83 0 0 1 1 6.51l-.1 2.5-.24 2zm13.55-6.61a8.4 8.4 0 0 0-1.74-5.17 5.64 5.64 0 0 0-4.57-2 6.62 6.62 0 0 0-5.08 1.87 8.79 8.79 0 0 0-2.06 5.27zM154 73.93l1.87-.3a17.93 17.93 0 0 1 2.07-.1 19 19 0 0 1 2 .1q.87.11 1.8.3a3.54 3.54 0 0 1 .37 1l.3 1.34.23 1.37.17 1.13a15.41 15.41 0 0 1 1.6-2 11.76 11.76 0 0 1 4.94-3.11 11.2 11.2 0 0 1 3.4-.5q5.88 0 8.85 3.21 2.97 3.21 3 10.07v22a28.46 28.46 0 0 1-9.48 0V89a11.4 11.4 0 0 0-1.1-5.54 4 4 0 0 0-3.84-1.93 8.74 8.74 0 0 0-2.33.33 4.8 4.8 0 0 0-2.17 1.3 6.93 6.93 0 0 0-1.57 2.7 14.22 14.22 0 0 0-.6 4.54v18.09a28.46 28.46 0 0 1-9.48 0zm39.16 7.21h-4.33l-.34-1.33 12.48-16h1.54v10.12h8.07c.12.6.21 1.2.27 1.81l.07 1.67-.07 1.8a15.72 15.72 0 0 1-.27 1.93h-8.07v13.55a13.43 13.43 0 0 0 .33 3.34 5 5 0 0 0 1 2 3.2 3.2 0 0 0 1.57 1 8.19 8.19 0 0 0 2.2.27 12.18 12.18 0 0 0 2-.17l1.7-.3a13.45 13.45 0 0 1 .67 2.64 18 18 0 0 1 .2 2.43v1.24a6.91 6.91 0 0 1-.1 1 27.06 27.06 0 0 1-6.34.74q-6.08 0-9.27-2.84-3.19-2.84-3.21-9.24zm26.39 0h-4.47a18.37 18.37 0 0 1-.3-1.83 16.21 16.21 0 0 1-.1-1.84 15.62 15.62 0 0 1 .4-3.54h13.75v34.51a29.25 29.25 0 0 1-4.67.4 28.51 28.51 0 0 1-4.61-.4zm-1.4-13a24.85 24.85 0 0 1-.4-4.47 25.8 25.8 0 0 1 .4-4.47 20.07 20.07 0 0 1 2.44-.3l2.36-.1 2.47.1a20.56 20.56 0 0 1 2.47.3 16.76 16.76 0 0 1 .27 2.23l.07 2.24-.07 2.2a17.35 17.35 0 0 1-.27 2.27 19.85 19.85 0 0 1-2.43.27l-2.44.06c-.76 0-1.51 0-2.4-.06a22.76 22.76 0 0 1-2.47-.28zm25.19 25.28a13.11 13.11 0 0 1-5.84-3.17q-2.1-2.1-2.1-6.3a9.57 9.57 0 0 1 3.6-8q3.65-2.86 9.91-2.87a28.65 28.65 0 0 1 5.14.47 33.65 33.65 0 0 1 5.14 1.4 17.8 17.8 0 0 1-.67 3.61 17.3 17.3 0 0 1-1.27 3.27 24.74 24.74 0 0 0-3.53-1.17 16 16 0 0 0-4.07-.5 7.32 7.32 0 0 0-3.54.7 2.37 2.37 0 0 0-1.27 2.24 2.29 2.29 0 0 0 .9 2.06 11 11 0 0 0 2.57 1.14l3.81 1.13a19.39 19.39 0 0 1 3.37 1.3 9.46 9.46 0 0 1 2.57 1.91 7.89 7.89 0 0 1 1.66 2.8 12.21 12.21 0 0 1 .6 4.07 10.45 10.45 0 0 1-1 4.6 10.61 10.61 0 0 1-3 3.71 15.16 15.16 0 0 1-4.77 2.47 20.6 20.6 0 0 1-6.34.9 27.16 27.16 0 0 1-2.94-.1 22.32 22.32 0 0 1-2.57-.34l-2.44-.56c-.8-.22-1.66-.51-2.6-.87a18.76 18.76 0 0 1 .64-3.64 22.39 22.39 0 0 1 1.3-3.57 26.5 26.5 0 0 0 4.17 1.3 18.86 18.86 0 0 0 4.1.44 14.85 14.85 0 0 0 2-.17 7.33 7.33 0 0 0 2-.6 4.88 4.88 0 0 0 1.57-1.13 3.14 3.14 0 0 0-.33-4.14 9.65 9.65 0 0 0-2.71-1.24zm24.19-12.28h-4.33l-.34-1.33 12.48-16h1.54v10.12H285c.12.6.21 1.2.27 1.81l.07 1.67-.07 1.8a15.72 15.72 0 0 1-.27 1.93h-8.07v13.55a13.43 13.43 0 0 0 .33 3.34 5 5 0 0 0 1 2 3.2 3.2 0 0 0 1.57 1 8.19 8.19 0 0 0 2.2.27 12.18 12.18 0 0 0 2-.17l1.7-.3a13.45 13.45 0 0 1 .67 2.64 18 18 0 0 1 .2 2.43v1.24a6.91 6.91 0 0 1-.1 1 27.06 27.06 0 0 1-6.34.74q-6.07 0-9.27-2.84-3.2-2.84-3.21-9.24zm30.79-20.78a29.57 29.57 0 0 1 4.88-.4 31.57 31.57 0 0 1 4.95.4v18.86h16.11V60.36a29.57 29.57 0 0 1 4.88-.4 31.57 31.57 0 0 1 4.95.4v48.08a31.91 31.91 0 0 1-4.88.4 31.57 31.57 0 0 1-4.95-.4v-20.8h-16.11v20.8a31.91 31.91 0 0 1-4.88.4 31.57 31.57 0 0 1-4.95-.4zm51.38 33.7c.17 2.68 1.11 4.61 2.8 5.82a11.39 11.39 0 0 0 6.69 1.8 26.52 26.52 0 0 0 9.16-1.67 15.55 15.55 0 0 1 1.27 3.21 15.93 15.93 0 0 1 .6 4 32.39 32.39 0 0 1-11.77 2 22.71 22.71 0 0 1-8.25-1.34 14.54 14.54 0 0 1-5.62-3.71 14.86 14.86 0 0 1-3.21-5.65 24.73 24.73 0 0 1 0-14.31 17 17 0 0 1 3.18-5.82 15.1 15.1 0 0 1 5.22-3.91 17.2 17.2 0 0 1 7.23-1.43 15.37 15.37 0 0 1 6.42 1.27 14.17 14.17 0 0 1 4.78 3.47 14.78 14.78 0 0 1 3 5.25 21.23 21.23 0 0 1 1 6.52l-.1 2.51-.24 2zm13.57-6.62a8.43 8.43 0 0 0-1.77-5.18 5.59 5.59 0 0 0-4.58-2 6.58 6.58 0 0 0-5.08 1.87 8.77 8.77 0 0 0-2.08 5.28zm32.51-1.74a5.43 5.43 0 0 0-.54-2.6 4 4 0 0 0-1.47-1.58 6.13 6.13 0 0 0-2.31-.77 21.5 21.5 0 0 0-3-.2 23.73 23.73 0 0 0-7.73 1.45 18.29 18.29 0 0 1-1.4-3.28 12.74 12.74 0 0 1-.47-3.68 37.19 37.19 0 0 1 5.88-1.47 34.86 34.86 0 0 1 5.49-.46q6.94 0 10.86 3.34 3.92 3.34 3.91 10.66v20.06a58.11 58.11 0 0 1-5.68 1.4 39 39 0 0 1-7.55.67 29.92 29.92 0 0 1-6.26-.6 13.55 13.55 0 0 1-4.88-2 9.51 9.51 0 0 1-3.14-3.61 12.06 12.06 0 0 1-1.1-5.42 9.85 9.85 0 0 1 1.37-5.38 10.52 10.52 0 0 1 3.54-3.48 15.91 15.91 0 0 1 4.85-1.87 25.32 25.32 0 0 1 5.35-.57l4.28.2zm0 6.89l-1.78-.23a15.43 15.43 0 0 0-1.67-.1 9.93 9.93 0 0 0-5.18 1.16 4.1 4.1 0 0 0-1.91 3.78 4.25 4.25 0 0 0 .74 2.68 4.42 4.42 0 0 0 1.77 1.37 7.23 7.23 0 0 0 2.2.53l2 .1a12.17 12.17 0 0 0 2-.16l1.74-.3zm16.42-33a27.91 27.91 0 0 1 4.74-.4 28.25 28.25 0 0 1 4.68.4v35.1a18.82 18.82 0 0 0 .24 3.35 5.14 5.14 0 0 0 .73 2 2.6 2.6 0 0 0 1.31 1 6.43 6.43 0 0 0 2 .26q.54 0 1.17-.06a10.33 10.33 0 0 0 1.24-.2 20.55 20.55 0 0 1 .74 5.35v1a3.77 3.77 0 0 1-.14 1 11.87 11.87 0 0 1-2.57.47l-2.78.14a11.74 11.74 0 0 1-8.25-2.84q-3.12-2.85-3.11-9.26zm21.17 21.53H429l-.33-1.34 12.5-16h1.54v10.1h8.09a15.61 15.61 0 0 1 .26 1.8l.07 1.67-.07 1.81a18.07 18.07 0 0 1-.26 1.94h-8.09v13.56A13.47 13.47 0 0 0 443 98a5 5 0 0 0 1 2 3.2 3.2 0 0 0 1.57 1 8.21 8.21 0 0 0 2.21.27 10.32 10.32 0 0 0 2-.17l1.71-.3a13.25 13.25 0 0 1 .66 2.64 16.61 16.61 0 0 1 .2 2.44v1.24a8.68 8.68 0 0 1-.1 1 27.15 27.15 0 0 1-6.35.74q-6.09 0-9.29-2.84-3.2-2.84-3.21-9.26zm23.83-21.56a23 23 0 0 1 2.34-.27q1.2-.06 2.34-.06 1.14 0 2.34.06 1.2.08 2.4.27V78c.31-.4.73-.88 1.24-1.44a10.52 10.52 0 0 1 1.91-1.56 11.48 11.48 0 0 1 2.74-1.3 11.73 11.73 0 0 1 3.67-.53q5.76 0 8.73 3.2 2.97 3.2 3 10.1v22.03a19.53 19.53 0 0 1-2.41.27l-2.34.07c-.76 0-1.54 0-2.34-.07a19.53 19.53 0 0 1-2.41-.27V88.91a11 11 0 0 0-1.14-5.55 4.11 4.11 0 0 0-3.87-1.94 8.83 8.83 0 0 0-2.34.34 4.92 4.92 0 0 0-2.18 1.3 7.38 7.38 0 0 0-1.6 2.71 13.26 13.26 0 0 0-.64 4.55v18.18a19.37 19.37 0 0 1-2.4.27l-2.34.07c-.75 0-1.53 0-2.31-.07a18.89 18.89 0 0 1-2.37-.27z"/></svg>